custom-analysis
version=1
nRows=6
nColumns=98
inDegrees=no

This file contains tibia displacement and acting force.

Units are S.I. units (seconds, meters, Newtons, ...)
Angles are in degrees.

endheader
time	APT	SIT	knee_angle	aACL_R_force	pACL_R_force	aPCL_R_force	pPCL_R_force	aMCL_R_force	mMCL_R_force	pMCL_R_force	aLCL_R_force	mLCL_R_force	pLCL_R_force	aPCL_L_force	pPCL_L_force	aMCL_L_force	aLCL_L_force	aACL_R_length	pACL_R_length	aPCL_R_length	pPCL_R_length	aMCL_R_length	mMCL_R_length	pMCL_R_length	aLCL_R_length	mLCL_R_length	pLCL_R_length	aPCL_L_length	pPCL_L_length	aMCL_L_length	aLCL_L_length	aACL_R_strain	pACL_R_strain	aPCL_R_strain	pPCL_R_strain	aMCL_R_strain	mMCL_R_strain	pMCL_R_strain	aLCL_R_strain	mLCL_R_strain	pLCL_R_strain	aPCL_L_strain	pPCL_L_strain	aMCL_L_strain	aLCL_L_strain	femur_lat_meniscii_r.femur_lat_r.force.X	femur_lat_meniscii_r.femur_lat_r.force.Y	femur_lat_meniscii_r.femur_lat_r.force.Z	femur_lat_meniscii_r.femur_lat_r.torque.X	femur_lat_meniscii_r.femur_lat_r.torque.Y	femur_lat_meniscii_r.femur_lat_r.torque.Z	femur_lat_meniscii_r.meniscus_lat_r.force.X	femur_lat_meniscii_r.meniscus_lat_r.force.Y	femur_lat_meniscii_r.meniscus_lat_r.force.Z	femur_lat_meniscii_r.meniscus_lat_r.torque.X	femur_lat_meniscii_r.meniscus_lat_r.torque.Y	femur_lat_meniscii_r.meniscus_lat_r.torque.Z	femur_med_meniscii_r.femur_med_r.force.X	femur_med_meniscii_r.femur_med_r.force.Y	femur_med_meniscii_r.femur_med_r.force.Z	femur_med_meniscii_r.femur_med_r.torque.X	femur_med_meniscii_r.femur_med_r.torque.Y	femur_med_meniscii_r.femur_med_r.torque.Z	femur_med_meniscii_r.meniscus_med_r.force.X	femur_med_meniscii_r.meniscus_med_r.force.Y	femur_med_meniscii_r.meniscus_med_r.force.Z	femur_med_meniscii_r.meniscus_med_r.torque.X	femur_med_meniscii_r.meniscus_med_r.torque.Y	femur_med_meniscii_r.meniscus_med_r.torque.Z	femur_med_tibia_r.tibia_upper_r.force.X	femur_med_tibia_r.tibia_upper_r.force.Y	femur_med_tibia_r.tibia_upper_r.force.Z	femur_med_tibia_r.tibia_upper_r.torque.X	femur_med_tibia_r.tibia_upper_r.torque.Y	femur_med_tibia_r.tibia_upper_r.torque.Z	femur_med_tibia_r.femur_med_r.force.X	femur_med_tibia_r.femur_med_r.force.Y	femur_med_tibia_r.femur_med_r.force.Z	femur_med_tibia_r.femur_med_r.torque.X	femur_med_tibia_r.femur_med_r.torque.Y	femur_med_tibia_r.femur_med_r.torque.Z	femur_lat_tibia_r.tibia_upper_r.force.X	femur_lat_tibia_r.tibia_upper_r.force.Y	femur_lat_tibia_r.tibia_upper_r.force.Z	femur_lat_tibia_r.tibia_upper_r.torque.X	femur_lat_tibia_r.tibia_upper_r.torque.Y	femur_lat_tibia_r.tibia_upper_r.torque.Z	femur_lat_tibia_r.femur_lat_r.force.X	femur_lat_tibia_r.femur_lat_r.force.Y	femur_lat_tibia_r.femur_lat_r.force.Z	femur_lat_tibia_r.femur_lat_r.torque.X	femur_lat_tibia_r.femur_lat_r.torque.Y	femur_lat_tibia_r.femur_lat_r.torque.Z	femur_lat_meniscii_force_r	femur_med_meniscii_force_r	femur_lat_tibia_force_r	femur_med_tibia_force_r
      0.11076575	      0.00854818	      0.00791272	     29.42958589	      8.64380720	    -13.09142480	     27.06265122	     61.17569803	      0.00000000	      0.00000000	    -38.57078003	      0.00000000	      0.00000000	      0.00000000	      0.00000000	      0.00000000	      0.00000001	      0.00000000	      0.03250864	      0.02540676	      0.03111481	      0.03023899	      0.05735773	      0.05953366	      0.05873546	      0.05333463	      0.05020761	      0.04658135	      0.01525851	      0.01651186	      0.06550154	      0.04489616	      0.04847978	      0.01388978	      0.00062734	      0.01175017	     -0.04446788	     -0.00434554	      0.00012706	     -0.04720799	     -0.10850749	     -0.11006980	      0.00000079	     -0.32847694	      0.00000060	     -0.00000086	     43.31782855	    255.43697062	     37.74505343	    -21.69126575	      1.10806626	     16.77709054	    -43.31782855	   -255.43697062	    -37.74505343	      7.78146254	     -1.59273895	      2.46637922	    -25.16897158	     54.15305755	      7.69562572	     -1.87673942	      0.58432549	    -10.30785327	     25.16897158	    -54.15305755	     -7.69562572	     -0.95501992	     -0.61374801	      1.25346926	   -102.63677160	   -511.41109095	    116.15326627	    -12.12029216	      2.57106819	      0.63088390	    102.63677160	    511.41109095	   -116.15326627	     57.57318094	     -1.56112472	     43.97943335	    -38.95062316	   -147.05927567	    -37.06293728	      4.98288122	     -1.40763271	      0.34819401	     38.95062316	    147.05927567	     37.06293728	    -18.85308533	      0.93903448	     16.08776208	    261.81896281	     60.21007746	    156.57982923	    534.38487263
      0.11185002	      0.00863610	      0.00807042	     29.93197990	      7.95426098	    -13.49007718	     24.79006151	     57.45898632	      0.00000000	      0.00000000	      0.00000000	      0.00000000	      0.00000000	      0.00000000	      0.00000000	      0.00000000	      0.00000001	      0.00000000	      0.03248364	      0.02536765	      0.03119112	      0.03028701	      0.05739569	      0.05952288	      0.05867481	      0.05332117	      0.05016219	      0.04650495	      0.01525851	      0.01651186	      0.06550154	      0.04489616	      0.04767337	      0.01232893	      0.00308154	      0.01335707	     -0.04383546	     -0.00452593	     -0.00090569	     -0.04744845	     -0.10931391	     -0.11152940	      0.00000079	     -0.32847694	      0.00000060	     -0.00000086	     48.65230868	    268.82126950	     35.65374441	    -21.13726239	      1.21558427	     18.91359639	    -48.65230868	   -268.82126950	    -35.65374441	      8.04406163	     -1.69383890	      2.55902804	    -23.42675566	     56.00076592	      8.19255605	     -2.03166245	      0.54250556	     -9.57112865	     23.42675566	    -56.00076592	     -8.19255605	     -0.98846890	     -0.58304957	      1.21215216	   -115.05766917	   -530.87050549	    122.49583433	    -12.67458165	      2.85050568	      0.47050332	    115.05766917	    530.87050549	   -122.49583433	     60.57369458	     -1.77291019	     49.19015646	    -40.42932798	   -145.03263760	    -36.04897574	      4.88013536	     -1.43845858	      0.31154044	     40.42932798	    145.03263760	     36.04897574	    -18.37251893	      0.97246180	     16.69512144	    275.50519335	     61.25370715	    154.81771598	    556.83659206
      0.11293429	      0.00873224	      0.00823234	     30.43859335	      8.70600460	    -12.50155224	     25.81222134	     60.68634175	      0.00000000	      0.00000000	      0.00000000	      0.00000000	      0.00000000	      0.00000000	      0.00000000	      0.00000000	      0.00000001	      0.00000000	      0.03246020	      0.02533002	      0.03126249	      0.03032928	      0.05743174	      0.05950941	      0.05861155	      0.05330528	      0.05011404	      0.04642557	      0.01525851	      0.01651186	      0.06550154	      0.04489616	      0.04691735	      0.01082722	      0.00537665	      0.01477138	     -0.04323494	     -0.00475121	     -0.00198287	     -0.04773229	     -0.11016893	     -0.11304594	      0.00000079	     -0.32847694	      0.00000060	     -0.00000086	     51.37349434	    261.62284416	     34.06694485	    -20.28364378	      1.29241177	     20.06173026	    -51.37349434	   -261.62284416	    -34.06694485	      7.77344886	     -1.76394058	      2.42502754	    -20.68080120	     54.58647597	      8.95461780	     -2.38198190	      0.47655116	     -8.43262851	     20.68080120	    -54.58647597	     -8.95461780	     -0.93431091	     -0.53313881	      1.11856180	   -129.60219353	   -553.23657275	    127.02007187	    -13.19129661	      3.15145507	      0.28480809	    129.60219353	    553.23657275	   -127.02007187	     62.84818552	     -2.02611779	     55.28294087	    -41.69936216	   -143.69401022	    -36.03464246	      4.83725781	     -1.47587718	      0.29058219	     41.69936216	    143.69401022	     36.03464246	    -18.33217354	      1.00202104	     17.21534055	    268.78672817	     59.05560157	    153.90029511	    582.23838129
      0.11401857	      0.00883298	      0.00839325	     30.94886545	      8.38060865	    -12.48324903	     28.45554129	     66.89827830	      0.00000000	      0.00000000	      0.00000000	      0.00000000	      0.00000000	      0.00000000	      0.00000000	      0.00000000	      0.00000001	      0.00000000	      0.03243926	      0.02529484	      0.03133551	      0.03037242	      0.05747122	      0.05949872	      0.05855115	      0.05329276	      0.05006891	      0.04634909	      0.01525851	      0.01651186	      0.06550154	      0.04489616	      0.04624205	      0.00942351	      0.00772511	      0.01621454	     -0.04257723	     -0.00492999	     -0.00301142	     -0.04795603	     -0.11097020	     -0.11450707	      0.00000079	     -0.32847694	      0.00000060	     -0.00000086	     47.93043949	    255.63621570	     34.81792026	    -20.45868072	      1.20080129	     18.61586383	    -47.93043949	   -255.63621570	    -34.81792026	      7.64034059	     -1.67888328	      2.54001627	    -18.68957053	     52.32543964	      9.65648721	     -2.72669698	      0.42806525	     -7.61977668	     18.68957053	    -52.32543964	     -9.65648721	     -0.86435201	     -0.49870265	      1.05227147	   -137.81565597	   -553.61046020	    126.79781714	    -13.18179950	      3.31727095	      0.15834099	    137.81565597	    553.61046020	   -126.79781714	     62.73868638	     -2.18131726	     58.66436502	    -41.07693328	   -137.03522741	    -34.88534434	      4.62337633	     -1.45460709	      0.27152692	     41.07693328	    137.03522741	     34.88534434	    -17.69724464	      0.98905531	     16.95150531	    262.41091703	     56.39591675	    147.25133361	    584.42739764
      0.11502328	      0.00892658	      0.00854342	     31.42415545	      7.27041489	    -13.15971079	     30.86375368	     71.36912314	      0.00000000	      0.00000000	      0.00000000	      0.00000000	      0.00000000	      0.00000000	      0.00000000	      0.00000000	      0.00000001	      0.00000000	      0.03241887	      0.02526162	      0.03140438	      0.03041289	      0.05750857	      0.05948918	      0.05849558	      0.05328204	      0.05002762	      0.04627871	      0.01525851	      0.01651186	      0.06550154	      0.04489616	      0.04558453	      0.00809790	      0.00993968	      0.01756873	     -0.04195493	     -0.00508958	     -0.00395756	     -0.04814746	     -0.11170335	     -0.11585168	      0.00000079	     -0.32847694	      0.00000060	     -0.00000086	     44.94232930	    256.31936106	     34.15173408	    -20.19830661	      1.11518837	     17.32092743	    -44.94232930	   -256.31936106	    -34.15173408	      7.62770659	     -1.58496200	      2.74728112	    -17.48914923	     52.03086978	     10.31615168	     -3.00624336	      0.39897778	     -7.12648405	     17.48914923	    -52.03086978	    -10.31615168	     -0.83937758	     -0.48162316	      1.02376962	   -142.95642039	   -550.01830892	    127.07141549	    -13.12932040	      3.44039938	      0.10896969	    142.95642039	    550.01830892	   -127.07141549	     62.77034596	     -2.28415572	     60.74231203	    -39.39099241	   -129.99360416	    -33.30574868	      4.38644248	     -1.40041435	      0.28024596	     39.39099241	    129.99360416	     33.30574868	    -16.87451483	      0.95074356	     16.24458570	    262.46098521	     55.85252668	    139.85442539	    582.32621692
      0.11575178	      0.00899416	      0.00865396	     31.77013115	      6.28254701	    -13.80766423	     32.88273521	     74.62220379	      0.00000000	      0.00000000	      0.00000000	      0.00000000	      0.00000000	      0.00000000	      0.00000000	      0.00000000	      0.00000001	      0.00000000	      0.03240266	      0.02523639	      0.03145422	      0.03044177	      0.05753501	      0.05948140	      0.05845447	      0.05327369	      0.04999689	      0.04622688	      0.01525851	      0.01651186	      0.06550154	      0.04489616	      0.04506173	      0.00709112	      0.01154259	      0.01853482	     -0.04151454	     -0.00521959	     -0.00465751	     -0.04829665	     -0.11224900	     -0.11684186	      0.00000079	     -0.32847694	      0.00000060	     -0.00000086	     45.00173493	    256.90058882	     33.31896036	    -19.85330841	      1.12409279	     17.31573202	    -45.00173493	   -256.90058882	    -33.31896036	      7.59648225	     -1.58809011	      2.81633758	    -16.74493646	     52.78418612	     10.73908709	     -3.16044918	      0.38125537	     -6.81567205	     16.74493646	    -52.78418612	    -10.73908709	     -0.84671536	     -0.47183537	      1.01270914	   -147.02189316	   -550.49928628	    127.24441840	    -13.13642449	      3.53261135	      0.09709793	    147.02189316	    550.49928628	   -127.24441840	     62.83530357	     -2.36238620	     62.38919028	    -38.36565635	   -124.87617881	    -32.13192256	      4.21377939	     -1.36549218	      0.27640012	     38.36565635	    124.87617881	     32.13192256	    -16.26581239	      0.92752301	     15.81588541	    262.93197181	     56.40825465	    134.53045778	    583.82877907
